<?xml version="1.0" encoding="UTF-8"?>
<svg xmlns="http://www.w3.org/2000/svg" xmlns:xlink="http://www.w3.org/1999/xlink" width="365pt" height="65.8pt" viewBox="0 0 365 65.8" version="1.1">
<defs>
<clipPath id="clip1">
  <path d="M 47 0 L 67 0 L 67 65.800781 L 47 65.800781 Z M 47 0 "/>
</clipPath>
<clipPath id="clip2">
  <path d="M 0 0 L 43 0 L 43 65.800781 L 0 65.800781 Z M 0 0 "/>
</clipPath>
<clipPath id="clip3">
  <path d="M 71 0 L 97 0 L 97 65.800781 L 71 65.800781 Z M 71 0 "/>
</clipPath>
<clipPath id="clip4">
  <path d="M 116 19 L 148 19 L 148 65.800781 L 116 65.800781 Z M 116 19 "/>
</clipPath>
<clipPath id="clip5">
  <path d="M 151 32 L 179 32 L 179 65.800781 L 151 65.800781 Z M 151 32 "/>
</clipPath>
<clipPath id="clip6">
  <path d="M 183 31 L 211 31 L 211 65.800781 L 183 65.800781 Z M 183 31 "/>
</clipPath>
<clipPath id="clip7">
  <path d="M 215 19 L 244 19 L 244 65.800781 L 215 65.800781 Z M 215 19 "/>
</clipPath>
<clipPath id="clip8">
  <path d="M 247 19 L 291 19 L 291 65.800781 L 247 65.800781 Z M 247 19 "/>
</clipPath>
<clipPath id="clip9">
  <path d="M 294 19 L 330 19 L 330 65.800781 L 294 65.800781 Z M 294 19 "/>
</clipPath>
<clipPath id="clip10">
  <path d="M 334 19 L 365 19 L 365 65.800781 L 334 65.800781 Z M 334 19 "/>
</clipPath>
</defs>
<g id="surface1">
<g clip-path="url(#clip1)" clip-rule="nonzero">
<path style=" stroke:none;fill-rule:nonzero;fill:rgb(1.998901%,43.099976%,59.199524%);fill-opacity:1;" d="M 47.207031 -0.00390625 L 66.636719 -0.00390625 L 66.636719 65.707031 L 47.207031 65.707031 L 47.207031 -0.00390625 "/>
</g>
<g clip-path="url(#clip2)" clip-rule="nonzero">
<path style=" stroke:none;fill-rule:nonzero;fill:rgb(7.099915%,60.398865%,74.899292%);fill-opacity:1;" d="M 42.339844 65.707031 L 22.953125 65.707031 L 0 -0.00390625 L 19.382813 -0.00390625 L 42.339844 65.707031 "/>
</g>
<g clip-path="url(#clip3)" clip-rule="nonzero">
<path style=" stroke:none;fill-rule:nonzero;fill:rgb(1.998901%,33.699036%,43.499756%);fill-opacity:1;" d="M 96.964844 -0.00390625 C 82.3125 3.753906 71.460938 17.015625 71.460938 32.875 C 71.460938 48.6875 82.3125 62 96.964844 65.753906 C 96.964844 62.695313 96.964844 3.566406 96.964844 -0.00390625 "/>
</g>
<g clip-path="url(#clip4)" clip-rule="nonzero">
<path style=" stroke:none;fill-rule:nonzero;fill:rgb(33.299255%,34.098816%,35.699463%);fill-opacity:1;" d="M 140.925781 59.957031 C 139.394531 61.207031 136.753906 61.859375 133.042969 61.859375 L 120.847656 61.859375 L 120.847656 44.28125 L 133.507813 44.28125 C 136.984375 44.28125 139.488281 44.886719 140.972656 46.136719 C 142.410156 47.34375 143.152344 49.476563 143.152344 52.445313 L 143.152344 53.464844 C 143.246094 56.574219 142.457031 58.707031 140.925781 59.957031 Z M 142.179688 32.179688 C 142.179688 34.867188 141.484375 36.863281 140.09375 38.070313 C 138.699219 39.277344 136.476563 39.921875 133.460938 39.921875 L 120.894531 39.921875 L 120.894531 24.019531 L 133.089844 24.019531 C 136.476563 24.019531 138.886719 24.574219 140.230469 25.640625 C 141.53125 26.660156 142.226563 28.46875 142.226563 31.019531 L 142.226563 32.179688 Z M 145.703125 44.839844 C 144.542969 43.402344 143.058594 42.335938 141.203125 41.6875 C 142.597656 40.988281 143.753906 40.015625 144.730469 38.765625 C 145.980469 37.140625 146.585938 34.914063 146.585938 32.085938 L 146.585938 31.019531 C 146.585938 27.21875 145.519531 24.390625 143.386719 22.582031 C 141.296875 20.820313 137.773438 19.9375 132.996094 19.9375 L 116.347656 19.9375 L 116.347656 65.753906 L 132.996094 65.753906 C 137.914063 65.753906 141.621094 64.734375 144.035156 62.738281 C 146.492188 60.699219 147.695313 57.546875 147.695313 53.371094 L 147.695313 52.351563 C 147.789063 49.058594 147.09375 46.554688 145.703125 44.839844 "/>
</g>
<g clip-path="url(#clip5)" clip-rule="nonzero">
<path style=" stroke:none;fill-rule:nonzero;fill:rgb(33.299255%,34.098816%,35.699463%);fill-opacity:1;" d="M 155.671875 54.949219 C 155.671875 52.535156 156.277344 50.820313 157.4375 49.894531 C 158.640625 48.921875 160.726563 48.457031 163.695313 48.457031 L 164.484375 48.457031 C 166.015625 48.457031 167.40625 48.550781 168.609375 48.78125 C 169.769531 48.96875 170.789063 49.339844 171.53125 49.800781 C 172.320313 50.265625 172.878906 50.867188 173.296875 51.65625 C 173.710938 52.445313 173.898438 53.464844 173.898438 54.71875 L 173.898438 61.765625 L 163.742188 61.765625 C 162.117188 61.765625 160.773438 61.625 159.707031 61.394531 C 158.6875 61.164063 157.851563 60.792969 157.25 60.28125 C 156.648438 59.769531 156.277344 59.214844 155.996094 58.472656 C 155.765625 57.730469 155.628906 56.804688 155.628906 55.738281 L 155.628906 54.949219 Z M 177.46875 38.855469 C 176.957031 37.46875 176.125 36.261719 174.964844 35.378906 C 173.851563 34.496094 172.367188 33.847656 170.605469 33.429688 C 168.890625 33.015625 166.710938 32.828125 164.207031 32.828125 C 162.675781 32.828125 154.375 32.828125 154.375 32.828125 L 154.375 36.769531 C 154.375 36.769531 162.675781 36.769531 164.207031 36.769531 C 166.199219 36.769531 167.867188 36.910156 169.167969 37.1875 C 170.421875 37.46875 171.394531 37.835938 172.089844 38.394531 C 172.785156 38.949219 173.25 39.691406 173.527344 40.617188 C 173.804688 41.59375 173.945313 42.84375 173.945313 44.28125 L 173.945313 47.066406 C 173.15625 46.371094 172.042969 45.8125 170.746094 45.394531 C 169.027344 44.839844 166.664063 44.5625 163.789063 44.5625 C 159.476563 44.5625 156.324219 45.394531 154.375 47.019531 C 152.382813 48.6875 151.40625 51.332031 151.40625 54.902344 L 151.40625 55.78125 C 151.40625 59.261719 152.382813 61.8125 154.375 63.34375 C 156.324219 64.871094 159.476563 65.660156 163.835938 65.660156 L 174.035156 65.660156 C 175.707031 65.660156 176.773438 65.382813 177.375 64.828125 C 177.980469 64.269531 178.257813 63.25 178.257813 61.71875 L 178.257813 43.863281 C 178.257813 41.964844 177.980469 40.25 177.46875 38.855469 "/>
</g>
<g clip-path="url(#clip6)" clip-rule="nonzero">
<path style=" stroke:none;fill-rule:nonzero;fill:rgb(33.299255%,34.098816%,35.699463%);fill-opacity:1;" d="M 209.835938 38.996094 C 209.464844 37.46875 208.722656 36.214844 207.703125 35.148438 C 206.683594 34.128906 205.292969 33.292969 203.484375 32.78125 C 201.722656 32.273438 199.449219 31.992188 196.761719 31.992188 C 194.023438 31.992188 191.753906 32.273438 190.035156 32.828125 C 188.273438 33.386719 186.835938 34.171875 185.816406 35.238281 C 184.796875 36.261719 184.054688 37.558594 183.683594 39.089844 C 183.3125 40.574219 183.125 42.242188 183.125 44.050781 L 183.125 65.753906 L 187.53125 65.753906 L 187.53125 44.421875 C 187.53125 43.03125 187.625 41.78125 187.808594 40.714844 C 187.996094 39.691406 188.367188 38.8125 188.96875 38.160156 C 189.570313 37.46875 190.5 36.957031 191.703125 36.585938 C 192.957031 36.214844 194.671875 36.03125 196.804688 36.03125 C 198.894531 36.03125 200.609375 36.214844 201.859375 36.585938 C 203.066406 36.957031 203.992188 37.46875 204.597656 38.160156 C 205.199219 38.855469 205.617188 39.691406 205.757813 40.714844 C 205.941406 41.78125 206.035156 43.03125 206.035156 44.46875 L 206.035156 65.800781 L 210.4375 65.800781 L 210.4375 44.097656 C 210.4375 42.148438 210.207031 40.480469 209.835938 38.996094 "/>
</g>
<g clip-path="url(#clip7)" clip-rule="nonzero">
<path style=" stroke:none;fill-rule:nonzero;fill:rgb(33.299255%,34.098816%,35.699463%);fill-opacity:1;" d="M 223.472656 47.621094 L 241.695313 32.96875 L 235.480469 32.96875 L 219.667969 45.769531 L 219.667969 19.890625 L 215.261719 19.890625 L 215.261719 65.707031 L 219.667969 65.707031 L 219.667969 49.800781 L 237.289063 65.707031 L 243.410156 65.707031 L 223.472656 47.621094 "/>
</g>
<g clip-path="url(#clip8)" clip-rule="nonzero">
<path style=" stroke:none;fill-rule:nonzero;fill:rgb(33.299255%,34.098816%,35.699463%);fill-opacity:1;" d="M 262.191406 46.601563 L 275.3125 46.601563 L 268.730469 27.914063 Z M 277.632813 53.558594 L 259.871094 53.558594 L 255.605469 65.707031 L 247.027344 65.707031 L 264.09375 19.890625 L 273.878906 19.890625 L 290.941406 65.707031 L 281.945313 65.707031 L 277.632813 53.558594 "/>
</g>
<g clip-path="url(#clip9)" clip-rule="nonzero">
<path style=" stroke:none;fill-rule:nonzero;fill:rgb(33.299255%,34.098816%,35.699463%);fill-opacity:1;" d="M 303.140625 58.707031 L 313.804688 58.707031 C 316.355469 58.707031 318.117188 58.289063 319.136719 57.40625 C 320.15625 56.523438 320.667969 54.949219 320.667969 52.628906 L 320.667969 51.796875 C 320.667969 49.382813 320.109375 47.714844 318.996094 46.785156 C 317.886719 45.859375 315.984375 45.394531 313.339844 45.394531 L 303.09375 45.394531 L 303.09375 58.707031 Z M 303.140625 26.894531 L 303.140625 38.484375 L 312.878906 38.484375 C 315.335938 38.484375 317.050781 38.023438 318.023438 37.140625 C 318.996094 36.261719 319.507813 34.777344 319.507813 32.78125 L 319.507813 31.949219 C 319.507813 30.140625 319.046875 28.839844 318.117188 28.097656 C 317.1875 27.308594 315.660156 26.941406 313.433594 26.941406 L 303.140625 26.941406 Z M 294.605469 19.890625 L 314.359375 19.890625 C 319.183594 19.890625 322.660156 20.820313 324.796875 22.671875 C 326.976563 24.527344 328.039063 27.402344 328.039063 31.296875 L 328.039063 31.949219 C 328.039063 34.3125 327.578125 36.304688 326.605469 37.882813 C 325.628906 39.507813 324.144531 40.714844 322.058594 41.5 C 324.285156 42.148438 326.09375 43.355469 327.390625 45.070313 C 328.734375 46.785156 329.386719 49.152344 329.386719 52.121094 L 329.386719 53.140625 C 329.386719 57.546875 328.039063 60.746094 325.398438 62.738281 C 322.753906 64.734375 318.996094 65.707031 314.175781 65.707031 L 294.558594 65.707031 L 294.558594 19.890625 L 294.605469 19.890625 "/>
</g>
<g clip-path="url(#clip10)" clip-rule="nonzero">
<path style=" stroke:none;fill-rule:nonzero;fill:rgb(33.299255%,34.098816%,35.699463%);fill-opacity:1;" d="M 354.242188 27.308594 C 351.921875 27.308594 350.066406 27.449219 348.632813 27.773438 C 347.191406 28.097656 346.078125 28.746094 345.246094 29.722656 C 344.410156 30.695313 343.898438 32.039063 343.621094 33.757813 C 343.34375 35.472656 343.203125 37.699219 343.203125 40.433594 L 343.203125 45.164063 C 343.203125 47.851563 343.34375 50.082031 343.667969 51.796875 C 343.992188 53.511719 344.550781 54.855469 345.386719 55.832031 C 346.21875 56.804688 347.378906 57.453125 348.816406 57.777344 C 350.253906 58.101563 352.109375 58.289063 354.382813 58.289063 C 355.167969 58.289063 355.957031 58.289063 356.746094 58.289063 C 357.535156 58.289063 358.414063 58.289063 359.390625 58.289063 C 360.363281 58.289063 361.382813 58.289063 362.542969 58.242188 C 363.699219 58.242188 363.5625 58.195313 365 58.148438 L 365 65.570313 C 362.449219 65.660156 360.316406 65.707031 358.554688 65.707031 C 356.792969 65.707031 355.308594 65.707031 354.148438 65.707031 C 350.347656 65.707031 347.238281 65.335938 344.6875 64.59375 C 342.140625 63.851563 340.097656 62.695313 338.566406 61.070313 C 337.035156 59.449219 335.925781 57.359375 335.273438 54.71875 C 334.625 52.121094 334.300781 48.875 334.300781 45.070313 L 334.300781 40.386719 C 334.300781 36.539063 334.625 33.292969 335.320313 30.648438 C 336.015625 28.050781 337.128906 25.917969 338.707031 24.296875 C 340.28125 22.671875 342.324219 21.558594 344.828125 20.863281 C 347.332031 20.167969 350.4375 19.84375 354.058594 19.84375 C 355.492188 19.84375 357.164063 19.84375 358.972656 19.84375 C 360.78125 19.84375 362.125 19.890625 365 19.984375 L 365 27.402344 C 363.5625 27.355469 361.476563 27.308594 359.574219 27.308594 C 357.628906 27.308594 355.863281 27.308594 354.242188 27.308594 "/>
</g>
</g>
</svg>
